<?xml version="1.0" encoding="UTF-8" standalone="no"?>
<!-- translate-xy="150,138" -->

<svg
   xmlns:dc="http://purl.org/dc/elements/1.1/"
   xmlns:cc="http://creativecommons.org/ns#"
   xmlns:rdf="http://www.w3.org/1999/02/22-rdf-syntax-ns#"
   xmlns:svg="http://www.w3.org/2000/svg"
   xmlns="http://www.w3.org/2000/svg"
   xmlns:sodipodi="http://sodipodi.sourceforge.net/DTD/sodipodi-0.dtd"
   xmlns:inkscape="http://www.inkscape.org/namespaces/inkscape"
   width="300"
   height="300"
   viewBox="0 0 300 300"
   version="1.1"
   id="svg8"
   sodipodi:docname="misc-double-circle-logo-000000.svg"
   inkscape:version="1.0.1 (3bc2e813f5, 2020-09-07)">
  <metadata
     id="metadata14">
    <rdf:RDF>
      <cc:Work
         rdf:about="">
        <dc:format>image/svg+xml</dc:format>
        <dc:type
           rdf:resource="http://purl.org/dc/dcmitype/StillImage" />
        <dc:title />
      </cc:Work>
    </rdf:RDF>
  </metadata>
  <defs
     id="defs12" />
  <sodipodi:namedview
     pagecolor="#ffffff"
     bordercolor="#666666"
     borderopacity="1"
     objecttolerance="10"
     gridtolerance="10"
     guidetolerance="10"
     inkscape:pageopacity="0"
     inkscape:pageshadow="2"
     inkscape:window-width="1366"
     inkscape:window-height="705"
     id="namedview10"
     showgrid="false"
     inkscape:zoom="1.5733332"
     inkscape:cx="185.3079"
     inkscape:cy="166.2738"
     inkscape:window-x="-8"
     inkscape:window-y="-8"
     inkscape:window-maximized="1"
     inkscape:current-layer="svg8"
     inkscape:showpageshadow="false"
     inkscape:document-rotation="0" />
  <circle
     style="fill:none;fill-opacity:1;stroke:#ffffff;stroke-width:2.5;stroke-miterlimit:4;stroke-dasharray:none;stroke-opacity:1"
     id="circle9"
     cy="150"
     cx="150"
     r="101.75" />
  <circle
     cx="150"
     cy="150"
     id="circle10"
     style="fill:none;fill-opacity:1;stroke:#ffffff;stroke-width:2.50883;stroke-miterlimit:4;stroke-dasharray:none;stroke-opacity:1"
     r="140.74559" />
<g transform="translate(32.3, 213.9) rotate(-115) "> <g
     aria-label="F"
     transform="scale(0.97087718,1.0299964)"
     style="font-style:normal;font-weight:normal;font-size:10.48236942px;line-height:1.25;font-family:sans-serif;letter-spacing:0px;word-spacing:0px;fill:#000000;fill-opacity:1;stroke:none;stroke-width:0.26205918"
     id="text826">
    <path
       d="M 15.131378,14.502647 V 11.068924 H 5.1365021 V 4.3304432 H 16.469401 V 0.88059899 H 0.9128611 V 24.352436 h 4.223641 v -9.849789 z"
       style="font-style:normal;font-variant:normal;font-weight:bold;font-stretch:normal;font-size:33.01533127px;font-family:'Roboto Mono';-inkscape-font-specification:'Roboto Mono Bold';fill:#000000;fill-opacity:1;stroke-width:0.26205918"
       id="path815" />
  </g>

 </g><g transform="translate(22.6, 193) rotate(-105) "> <g
     aria-label="u"
     transform="scale(0.99984249,1.0001575)"
     style="font-style:normal;font-weight:normal;font-size:10.6109066px;line-height:1.25;font-family:sans-serif;letter-spacing:0px;word-spacing:0px;fill:#000000;fill-opacity:1;stroke:none;stroke-width:0.26527259"
     id="text826">
    <path
       d="M 12.390476,25.100543 H 16.10029 V 7.1159159 H 11.982515 V 19.566887 c -0.141427,0.293732 -0.31549,0.565706 -0.52219,0.815922 -0.206701,0.250217 -0.440598,0.462357 -0.701693,0.63642 -0.31549,0.2067 -0.8103948,0.364445 -1.2346743,0.473235 -0.4134005,0.108789 -0.8811959,0.163184 -1.403386,0.163184 -0.5439481,0 -1.006304,-0.06527 -1.3870676,-0.195821 C 6.3527404,21.329279 5.9122308,21.100821 5.6620147,20.774452 5.4226776,20.469841 5.2431747,20.056441 5.1235061,19.53425 5.0147165,19.01206 4.955785,18.370187 4.9603217,17.608674 V 7.1159159 H 0.85886484 V 17.576037 c 0,1.327233 0.14686596,2.469524 0.44059796,3.426873 0.3046109,0.94647 0.7288904,1.724316 1.2728385,2.333538 0.5330691,0.620101 1.1803673,1.071577 1.9418946,1.35443 0.7615273,0.282853 1.5992074,0.42428 2.5130401,0.42428 1.0335013,0 1.9745315,-0.250216 2.8230905,-0.750649 0.8594375,-0.500432 1.7079085,-1.185806 2.2953725,-2.056123 z"
       style="font-style:normal;font-variant:normal;font-weight:bold;font-stretch:normal;font-size:33.42016983px;font-family:'Roboto Mono';-inkscape-font-specification:'Roboto Mono Bold';fill:#000000;fill-opacity:1;stroke-width:0.26527259"
       id="path815"
       inkscape:connector-curvature="0"
       sodipodi:nodetypes="cccccsccscccsccsccssccc" />
  </g>

 </g><g transform="translate(17.4, 170.5) rotate(-95) "> <g
     aria-label="l"
     transform="scale(1.0241947,0.97637688)"
     style="font-style:normal;font-weight:normal;font-size:10.48266697px;line-height:1.25;font-family:sans-serif;letter-spacing:0px;word-spacing:0px;fill:#000000;fill-opacity:1;stroke:none;stroke-width:0.2620666"
     id="text826">
    <path
       d="M 1.6576327,0.92759991 V 4.3614201 H 7.0259995 V 22.272097 H 0.88092969 v 3.417699 H 15.858506 V 22.272097 H 10.974737 V 0.92759991 Z"
       style="font-style:normal;font-variant:normal;font-weight:bold;font-stretch:normal;font-size:33.01626205px;font-family:'Roboto Mono';-inkscape-font-specification:'Roboto Mono Bold';fill:#000000;fill-opacity:1;stroke-width:0.2620666"
       id="path815"
       inkscape:connector-curvature="0"
       sodipodi:nodetypes="ccccccccccc" />
  </g>

 </g><g transform="translate(15.7, 147) rotate(-85) "> <g
     aria-label="l"
     transform="scale(1.0241947,0.97637688)"
     style="font-style:normal;font-weight:normal;font-size:10.48266697px;line-height:1.25;font-family:sans-serif;letter-spacing:0px;word-spacing:0px;fill:#000000;fill-opacity:1;stroke:none;stroke-width:0.2620666"
     id="text826">
    <path
       d="M 1.6576327,0.92759991 V 4.3614201 H 7.0259995 V 22.272097 H 0.88092969 v 3.417699 H 15.858506 V 22.272097 H 10.974737 V 0.92759991 Z"
       style="font-style:normal;font-variant:normal;font-weight:bold;font-stretch:normal;font-size:33.01626205px;font-family:'Roboto Mono';-inkscape-font-specification:'Roboto Mono Bold';fill:#000000;fill-opacity:1;stroke-width:0.2620666"
       id="path815"
       inkscape:connector-curvature="0"
       sodipodi:nodetypes="ccccccccccc" />
  </g>

 </g><g transform="translate(18.4, 123.7) rotate(-75) "> <g
     aria-label="-"
     transform="scale(0.91076074,1.0979832)"
     style="font-style:normal;font-weight:normal;font-size:9.83330441px;line-height:1.25;font-family:sans-serif;letter-spacing:0px;word-spacing:0px;fill:#000000;fill-opacity:1;stroke:none;stroke-width:0.24583255"
     id="text826">
    <path
       d="M 15.365107,14.723719 V 11.563101 H 2.9948415 v 3.160618 z"
       style="font-style:normal;font-variant:normal;font-weight:bold;font-stretch:normal;font-size:30.97103119px;font-family:'Roboto Mono';-inkscape-font-specification:'Roboto Mono Bold';fill:#000000;fill-opacity:1;stroke-width:0.24583255"
       id="path815" />
  </g>

 </g><g transform="translate(24.8, 101.1) rotate(-65) "> <g
     aria-label="S"
     transform="scale(0.94266038,1.0608274)"
     style="font-style:normal;font-weight:normal;font-size:9.9470911px;line-height:1.25;font-family:sans-serif;letter-spacing:0px;word-spacing:0px;fill:#000000;fill-opacity:1;stroke:none;stroke-width:0.24867721"
     id="text826">
    <path
       d="m 13.117123,17.589656 q 0,0.657795 -0.275356,1.19321 -0.275357,0.535415 -0.764879,0.902556 -0.504819,0.367142 -1.19321,0.56601 -0.68839,0.198869 -1.545054,0.198869 -0.9790442,0 -1.8051127,-0.229464 Q 6.7227403,19.991374 6.1261353,19.517149 5.5295302,19.027627 5.1776862,18.293344 4.8411397,17.559061 4.7952471,16.549422 H 0.84847512 q 0.0152976,1.667434 0.65779528,2.937132 0.6577954,1.254401 1.7745177,2.187552 1.1932101,0.963747 2.7994545,1.468566 1.6062444,0.50482 3.2583814,0.50482 1.621542,0 3.028918,-0.397737 1.422674,-0.397736 2.462908,-1.177912 1.055532,-0.780176 1.652137,-1.912196 0.611903,-1.13202 0.611903,-2.600586 0,-1.667435 -0.749581,-2.921835 -0.749581,-1.269698 -2.003981,-2.20285 Q 13.438372,11.776581 12.352244,11.302357 11.281415,10.828132 10.103502,10.491586 9.1091606,10.216229 8.2524969,9.8949805 7.4111308,9.558434 6.7839306,9.1301022 6.1567304,8.7323655 5.8048864,8.1969507 5.4683399,7.6462383 5.4683399,6.9425503 q 0,-0.6577953 0.2600587,-1.1932101 Q 5.9884572,5.1986278 6.4779793,4.8008911 6.9675014,4.418452 7.6558918,4.2042861 8.3442823,3.9901202 9.1856484,3.9901202 q 0.9484486,0 1.6674346,0.2753561 0.718986,0.2600587 1.223805,0.7342832 0.474225,0.4742245 0.734283,1.1320199 0.275357,0.6577953 0.321249,1.4532687 h 3.916177 q 0,-1.4991614 -0.596605,-2.7535618 Q 15.870685,3.5770859 14.83045,2.6745295 13.790216,1.7719732 12.352244,1.2824511 10.929571,0.77763139 9.2468386,0.77763139 q -1.6062443,0 -3.0136204,0.42833181 Q 4.8258422,1.6342951 3.7856077,2.445066 2.7300757,3.2405395 2.1181731,4.3878569 1.521568,5.5351743 1.521568,6.9425503 q 0,1.269698 0.4895221,2.32523 0.4895221,1.0402347 1.407376,1.8816007 0.9025564,0.841366 2.2640398,1.529756 1.3614833,0.673093 3.0748106,1.147318 1.1167223,0.305951 1.9274935,0.673093 0.826068,0.367141 1.376781,0.810771 0.535415,0.474224 0.795473,1.040234 0.260059,0.550713 0.260059,1.239103 z"
       style="font-style:normal;font-variant:normal;font-weight:bold;font-stretch:normal;font-size:31.32941437px;font-family:'Roboto Mono';-inkscape-font-specification:'Roboto Mono Bold';fill:#000000;fill-opacity:1;stroke-width:0.24867721"
       id="path815" />
  </g>

 </g><g transform="translate(35.1, 80.3) rotate(-55) "> <g
     aria-label="t"
     transform="scale(0.97692725,1.0236177)"
     style="font-style:normal;font-weight:normal;font-size:10.4605608px;line-height:1.25;font-family:sans-serif;letter-spacing:0px;word-spacing:0px;fill:#000000;fill-opacity:1;stroke:none;stroke-width:0.26151398"
     id="text826">
    <path
       d="M 9.215023,2.6704246 H 5.0484313 V 6.9174524 H 0.9461885 V 10.0062 h 4.1022428 v 8.23666 q 0,1.705246 0.4343551,2.911788 0.4504423,1.206542 1.2708909,1.978729 0.8043613,0.788274 1.9304672,1.15828 1.1421931,0.370006 2.5096075,0.370006 0.740012,0 1.480025,-0.08044 0.756099,-0.06435 1.44785,-0.193047 0.691751,-0.128697 1.286978,-0.321744 0.611315,-0.193047 1.061757,-0.450442 L 16.036007,20.73638 q -0.28957,0.08044 -0.723925,0.160872 -0.418268,0.08044 -0.900885,0.144785 -0.498704,0.08044 -1.04567,0.144785 -0.530878,0.04826 -1.029582,0.04826 -0.691751,0 -1.270891,-0.160872 Q 10.485914,20.91334 10.067646,20.511159 9.6654653,20.141153 9.4402441,19.513751 9.215023,18.870262 9.215023,17.905028 V 10.0062 H 15.73035 V 6.9174524 H 9.215023 Z"
       style="font-style:normal;font-variant:normal;font-weight:bold;font-stretch:normal;font-size:32.94664001px;font-family:'Roboto Mono';-inkscape-font-specification:'Roboto Mono Bold';fill:#000000;fill-opacity:1;stroke-width:0.26151398"
       id="path815" />
  </g>

 </g><g transform="translate(49.3, 61.3) rotate(-45) "> <g
     aria-label="a"
     transform="scale(0.97748117,1.0230376)"
     style="font-style:normal;font-weight:normal;font-size:10.40345955px;line-height:1.25;font-family:sans-serif;letter-spacing:0px;word-spacing:0px;fill:#000000;fill-opacity:1;stroke:none;stroke-width:0.26008642"
     id="text826">
    <path
       d="m 12.238424,24.538427 h 4.223845 c 0.02231,-0.754051 -0.348504,-1.517808 -0.511982,-2.130849 -0.106663,-0.618644 -0.159994,-1.354617 -0.159994,-2.207919 v -7.551722 c 0,-1.00263 -0.18666,-1.877265 -0.559979,-2.623904 C 14.856994,9.2667275 14.350346,8.6374172 13.71037,8.1361023 13.049061,7.6347874 12.275756,7.2614677 11.390455,7.0161434 10.505154,6.7601528 9.5451896,6.6321575 8.5105608,6.6321575 c -1.1412914,0 -2.1599206,0.1493279 -3.0558877,0.4479836 C 4.5693723,7.3681305 3.8173999,7.7627827 3.198756,8.2640976 2.5801121,8.7654125 2.1054628,9.3413914 1.7748083,9.9920341 1.45482,10.632011 1.2948259,11.309319 1.2948259,12.023959 h 4.1438478 c 0,-0.319988 0.053331,-0.61331 0.1599941,-0.879967 0.1066627,-0.277323 0.27199,-0.511981 0.4959818,-0.703974 0.234658,-0.213326 0.5333137,-0.378653 0.8959671,-0.4959821 0.3733196,-0.1173291 0.8053037,-0.1759936 1.2959523,-0.1759936 0.5546463,0 1.0399619,0.069331 1.4559466,0.2079924 0.4266514,0.1386613 0.7839714,0.3359873 1.0719604,0.5919783 0.277323,0.245324 0.485316,0.538647 0.623977,0.879968 0.138662,0.341321 0.207993,0.73064 0.207993,1.167957 v 1.08796 H 9.0065426 c -1.2586204,0 -2.3839124,0.117329 -3.375876,0.351987 -0.9812973,0.223991 -1.8079336,0.559979 -2.4799089,1.007963 -0.7359729,0.479982 -1.2906192,1.08796 -1.6639388,1.823933 -0.3733196,0.735973 -0.55997945,1.583941 -0.55997945,2.543906 0,0.735973 0.14399475,1.423948 0.43198415,2.063924 0.2986557,0.629311 0.7146404,1.173291 1.2479541,1.63194 0.5226475,0.45865 1.1519577,0.81597 1.8879307,1.071961 0.7466392,0.255991 1.5679423,0.383986 2.4639094,0.383986 0.5439801,0 1.0559613,-0.05333 1.5359436,-0.159994 0.4799823,-0.106663 0.9226327,-0.250657 1.3279512,-0.431984 0.3946524,-0.181327 0.7573054,-0.389319 1.0879604,-0.623977 0.330654,-0.245325 0.623976,-0.506649 0.879967,-0.783972 0.04267,0.319989 0.101331,0.629311 0.175994,0.927966 0.07466,0.28799 0.165327,0.813564 0.27199,1.02689 z M 7.7905873,21.319618 c -0.4479835,0 -0.8426357,-0.05333 -1.1839565,-0.159994 C 6.26531,21.042295 5.9826537,20.892967 5.7586619,20.71164 5.5240039,20.508981 5.3480104,20.26899 5.2306813,19.991667 5.1133523,19.703678 5.0546878,19.394356 5.0546878,19.063701 c 0,-0.405319 0.074664,-0.778638 0.2239918,-1.119959 0.1599941,-0.341321 0.3946521,-0.634643 0.7039741,-0.879968 0.3413208,-0.266657 0.7839712,-0.469316 1.3279512,-0.607977 0.54398,-0.138662 1.1999559,-0.207993 1.9679277,-0.207993 h 2.3679134 v 3.087887 c -0.138662,0.245324 -0.330655,0.490648 -0.575979,0.735973 -0.234658,0.234658 -0.517314,0.44265 -0.847969,0.623977 -0.3306546,0.191993 -0.6986411,0.346654 -1.1039595,0.463983 -0.4053185,0.106663 -0.8479689,0.159994 -1.3279512,0.159994 z"
       style="font-style:normal;font-variant:normal;font-weight:bold;font-stretch:normal;font-size:32.76679611px;font-family:'Roboto Mono';-inkscape-font-specification:'Roboto Mono Bold';fill:#000000;fill-opacity:1;stroke-width:0.26008642"
       id="path815"
       inkscape:connector-curvature="0"
       sodipodi:nodetypes="cccsscccscsccccccscccscsccsscccsscccccscccscccscccccs" />
  </g>

 </g><g transform="translate(65.9, 45.1) rotate(-35) "> <g
     aria-label="c"
     transform="scale(0.98202548,1.0183035)"
     style="font-style:normal;font-weight:normal;font-size:10.41426468px;line-height:1.25;font-family:sans-serif;letter-spacing:0px;word-spacing:0px;fill:#000000;fill-opacity:1;stroke:none;stroke-width:0.26035658"
     id="text826">
    <path
       d="m 8.9944199,21.317659 q -1.1371381,0 -1.8898916,-0.448449 Q 6.3677909,20.404745 5.9353581,19.651991 5.4708932,18.899238 5.2947168,17.938276 5.1185405,16.961298 5.1185405,15.920256 v -0.512513 q 0,-1.025026 0.1761763,-1.985987 0.1921924,-0.976978 0.6406413,-1.729732 0.4484488,-0.752753 1.1851862,-1.201202 0.7367375,-0.464465 1.8578596,-0.464465 0.7687695,0 1.4094111,0.256257 0.640641,0.256256 1.105106,0.704705 0.448449,0.432433 0.688689,1.041042 0.256257,0.592593 0.240241,1.265266 h 3.907911 Q 16.345778,11.804136 15.801233,10.586918 15.272704,9.3536837 14.295726,8.4888181 13.318748,7.6239524 11.973402,7.1434715 10.628055,6.6629906 9.042468,6.6629906 q -2.0020038,0 -3.5075107,0.6886893 -1.5055069,0.6886893 -2.5145168,1.8738756 -1.025026,1.2012025 -1.537539,2.7867895 -0.51251293,1.585587 -0.51251293,3.395398 v 0.512513 q 0,1.809812 0.51251293,3.395399 0.5285291,1.585587 1.537539,2.770773 1.0090099,1.185186 2.5145168,1.873876 1.5215229,0.688689 3.5235268,0.688689 1.4734749,0 2.7867889,-0.464465 1.329331,-0.480481 2.322325,-1.313314 1.00901,-0.816818 1.585587,-1.93794 0.592593,-1.137138 0.576577,-2.450453 h -3.907911 q 0.01602,0.640641 -0.256257,1.16917 -0.272273,0.512513 -0.752753,0.880882 -0.480481,0.368369 -1.105107,0.576577 -0.6246247,0.208209 -1.3133141,0.208209 z"
       style="font-style:normal;font-variant:normal;font-weight:bold;font-stretch:normal;font-size:32.80083084px;font-family:'Roboto Mono';-inkscape-font-specification:'Roboto Mono Bold';fill:#000000;fill-opacity:1;stroke-width:0.26035658"
       id="path814" />
  </g>

 </g><g transform="translate(85.7, 32.2) rotate(-25) "> <g
     aria-label="k"
     transform="matrix(0.98273284,0,0,1.034376,-0.01510923,0)"
     style="font-style:normal;font-weight:normal;font-size:9.87524796px;line-height:1.25;font-family:sans-serif;letter-spacing:0px;word-spacing:0px;fill:#000000;fill-opacity:1;stroke:none;stroke-width:0.24688113"
     id="text826">
    <path
       d="m 6.8237131,17.278458 4.9358009,6.970869 h 4.844677 L 9.4207035,14.66628 15.708154,7.8169081 H 10.984973 L 6.2617912,12.889392 4.8645801,14.453661 V 0.92197466 H 0.94631389 V 24.249327 H 4.8645801 v -5.14842 z"
       style="font-style:normal;font-variant:normal;font-weight:bold;font-stretch:normal;font-size:31.10313606px;font-family:'Roboto Mono';-inkscape-font-specification:'Roboto Mono Bold';fill:#000000;fill-opacity:1;stroke-width:0.24688113"
       id="path815"
       inkscape:connector-curvature="0" />
  </g>

 </g><g transform="translate(130.1, 17.2) rotate(-5) "> <g
     aria-label="W"
     transform="matrix(0.94083231,0,0,1.0958529,-0.26414116,0)"
     style="font-style:normal;font-weight:normal;font-size:9.85241985px;line-height:1.25;font-family:sans-serif;letter-spacing:0px;word-spacing:0px;fill:#000000;fill-opacity:1;stroke:none;stroke-width:0.24631044"
     id="text826">
    <path
       d="m 3.4543042,22.888952 h 3.6516253 c 0.7166439,-4.59731 1.4792717,-7.250248 2.1818839,-11.849165 0.7252496,4.599253 1.5008606,7.25363 2.2576436,11.849165 h 3.636474 L 18.166869,0.82768109 H 14.315952 C 13.780077,5.4544691 13.424975,8.1405538 12.893983,12.767758 12.18444,8.139932 11.783593,5.4538452 11.059404,0.82768109 H 7.4859194 C 6.7557514,5.4248372 6.4925974,8.0990105 5.7271,12.691999 5.2166371,8.0892596 5.1345112,5.4285359 4.6011568,0.82768109 H 0.49966969 Z"
       style="font-style:normal;font-variant:normal;font-weight:bold;font-stretch:normal;font-size:31.03123856px;font-family:'Roboto Mono';-inkscape-font-specification:'Roboto Mono Bold';fill:#000000;fill-opacity:1;stroke-width:0.24631044"
       id="path818"
       inkscape:connector-curvature="0"
       sodipodi:nodetypes="cccccccccccccc" />
  </g>

 </g><g transform="translate(153.7, 15.9) rotate(5) "> <g
     aria-label="e"
     transform="scale(0.95916857,1.0425696)"
     style="font-style:normal;font-weight:normal;font-size:10.20241356px;line-height:1.25;font-family:sans-serif;letter-spacing:0px;word-spacing:0px;fill:#000000;fill-opacity:1;stroke:none;stroke-width:0.25506032"
     id="text826">
    <path
       d="m 9.5030338,24.112341 q 2.4633652,0 4.2363612,-0.957104 1.788686,-0.972794 2.620268,-2.180941 l -2.0868,-2.149561 q -0.768822,0.988484 -1.976969,1.506261 -1.208147,0.517778 -2.5418166,0.517778 -0.972794,0 -1.7886858,-0.313805 Q 7.1651901,20.221165 6.537581,19.656317 5.9413524,19.107159 5.5804772,18.416789 5.2352923,17.726419 5.0313193,16.659483 v -0.06276 H 16.689157 v -1.725925 q 0,-1.851447 -0.502087,-3.389089 Q 15.684983,9.9283764 14.712189,8.8300606 13.723705,7.7317448 12.295894,7.1198259 10.883774,6.5079071 9.0480172,6.5079071 q -1.7102346,0 -3.2008061,0.6432993 -1.4748813,0.627609 -2.5731971,1.7729956 -1.0983158,1.161077 -1.7259249,2.77717 -0.61191879,1.600403 -0.61191879,3.577372 v 0.627609 q 0,1.725924 0.61191879,3.232186 0.6119188,1.490572 1.7416151,2.588887 1.1296963,1.114007 2.6987189,1.757306 1.5847129,0.627609 3.5146107,0.627609 z M 9.0166368,9.8028546 q 0.8943428,0 1.5533322,0.2981144 0.67468,0.282424 1.145387,0.768821 0.455016,0.486397 0.70606,1.161077 0.266734,0.674679 0.266734,1.38074 v 0.313804 H 5.1254607 Q 5.2823629,12.815378 5.6118577,12.093628 5.9570427,11.371877 6.4591299,10.8541 6.9455269,10.336322 7.5888262,10.069588 8.2478157,9.8028546 9.0166368,9.8028546 Z"
       style="font-style:normal;font-variant:normal;font-weight:bold;font-stretch:normal;font-size:32.13358307px;font-family:'Roboto Mono';-inkscape-font-specification:'Roboto Mono Bold';fill:#000000;fill-opacity:1;stroke-width:0.25506032"
       id="path815" />
  </g>

 </g><g transform="translate(176.6, 18.7) rotate(15) "> <g
     aria-label="b"
     transform="scale(1.0051319,0.99489427)"
     style="font-style:normal;font-weight:normal;font-size:10.17621422px;line-height:1.25;font-family:sans-serif;letter-spacing:0px;word-spacing:0px;fill:#000000;fill-opacity:1;stroke:none;stroke-width:0.25440532"
     id="text826">
    <path
       d="m 15.930235,16.639577 v -0.328648 c 0,-0.991163 -0.08868,-1.924942 -0.266049,-2.801338 C 15.48682,12.633194 15.220771,11.840264 14.86604,11.130801 14.615641,10.65087 14.328725,10.212671 14.005293,9.8162063 13.692294,9.4197414 13.337563,9.0754428 12.941098,8.7833107 12.450733,8.4285789 11.897769,8.1573134 11.282205,7.9695142 10.677074,7.781715 10.009344,7.6878154 9.2790133,7.6878154 c -0.542531,0 -1.0485455,0.057383 -1.5180435,0.1721493 C 7.3019051,7.9642976 6.8741402,8.1260135 6.4776752,8.3451126 6.1959764,8.5016119 5.9299275,8.6894111 5.6795286,8.9085102 5.4291297,9.117176 5.1943807,9.3467084 4.9752816,9.5971073 V 0.89574432 H 0.93759881 V 25.203725 H 4.5840333 L 4.7718325,23.103 c 0.1773659,0.239965 0.3651651,0.459064 0.5633976,0.657297 0.2086658,0.187799 0.4277649,0.359949 0.6572972,0.516448 0.4381981,0.312999 0.9285627,0.552964 1.4710937,0.719897 0.5529643,0.166933 1.1685284,0.250399 1.8466922,0.250399 0.6990308,0 1.3406778,-0.08868 1.9249418,-0.266049 0.594697,-0.177366 1.132012,-0.432982 1.611943,-0.766847 0.552965,-0.375599 1.027679,-0.845097 1.424144,-1.408494 0.406898,-0.563397 0.735547,-1.194611 0.985946,-1.893642 0.219099,-0.615564 0.386031,-1.278078 0.500798,-1.987541 0.114766,-0.719897 0.172149,-1.481528 0.172149,-2.284891 z m -4.053333,-0.328648 v 0.328648 c 0,0.448631 -0.02087,0.88683 -0.0626,1.314595 -0.04173,0.417331 -0.10955,0.80858 -0.20345,1.173745 -0.114766,0.490365 -0.281698,0.928563 -0.500797,1.314594 -0.219099,0.386032 -0.500798,0.699031 -0.845097,0.938996 -0.250399,0.177366 -0.5425309,0.318215 -0.8763962,0.422548 -0.3234319,0.0939 -0.688597,0.14085 -1.0954953,0.14085 -0.4590647,0 -0.8711796,-0.05217 -1.2363447,-0.1565 C 6.6915573,21.673639 6.3733423,21.511923 6.1020768,21.303257 5.8516779,21.136325 5.6377955,20.938093 5.4604296,20.70856 5.2830637,20.468595 5.1213477,20.202546 4.9752816,19.910413 v -6.88597 C 5.0900478,12.79491 5.2204639,12.581028 5.36653,12.382795 5.512596,12.17413 5.674312,11.991547 5.8516779,11.835048 6.14381,11.563782 6.4881085,11.360333 6.8845735,11.2247 c 0.396465,-0.146066 0.8555297,-0.219099 1.3771941,-0.219099 0.396465,0 0.7511968,0.04695 1.0641955,0.14085 0.3234319,0.08347 0.6155639,0.213882 0.8763959,0.391248 0.375599,0.281699 0.667731,0.605131 0.876397,0.970296 0.208665,0.365165 0.375598,0.772064 0.500798,1.220695 0.104333,0.386031 0.177366,0.798146 0.219099,1.236344 0.05217,0.438199 0.07825,0.88683 0.07825,1.345895 z"
       style="font-style:normal;font-variant:normal;font-weight:bold;font-stretch:normal;font-size:32.05106354px;font-family:'Roboto Mono';-inkscape-font-specification:'Roboto Mono Bold';fill:#000000;fill-opacity:1;stroke-width:0.25440532"
       id="path815"
       inkscape:connector-curvature="0"
       sodipodi:nodetypes="sssccccsccccccccccccscccccscsccsccsccccccccsccccccc" />
  </g>

 </g><g transform="translate(219.9, 35.7) rotate(35) "> <g
     aria-label="D"
     transform="scale(0.95087813,1.0516595)"
     style="font-style:normal;font-weight:normal;font-size:10.26644421px;line-height:1.25;font-family:sans-serif;letter-spacing:0px;word-spacing:0px;fill:#000000;fill-opacity:1;stroke:none;stroke-width:0.25666103"
     id="text826">
    <path
       d="M 0.93534977,23.850801 H 6.9350545 q 1.563081,0 2.9209089,-0.378928 1.3736166,-0.378929 2.4946136,-1.08942 0.9789,-0.615759 1.799912,-1.515715 0.821012,-0.915745 1.420983,-2.005165 0.615759,-1.168363 0.947321,-2.573557 0.331563,-1.420983 0.331563,-2.984064 v -1.863066 q 0,-1.6420246 -0.36314,-3.0945847 Q 16.139865,6.8937412 15.476739,5.6938003 14.876769,4.6201689 14.024179,3.7360019 13.187378,2.8518348 12.113747,2.2518644 10.99275,1.5887391 9.6507104,1.2255991 8.3086711,0.86245906 6.7613789,0.86245906 H 0.93534977 Z M 5.087777,4.2096628 h 1.6736019 q 0.8683783,0 1.5946583,0.205253 0.7420688,0.1894644 1.3420392,0.5368157 0.8052236,0.4578722 1.3894056,1.199941 0.59997,0.72628 0.96311,1.6578131 0.299985,0.7736462 0.442084,1.6893906 0.157887,0.8999558 0.173675,1.9104318 v 1.894644 q -0.01579,1.057843 -0.173675,1.973587 -0.142099,0.915745 -0.426295,1.673602 -0.347351,0.899956 -0.868378,1.57887 -0.505239,0.678914 -1.168364,1.120997 -0.6315478,0.426295 -1.4051939,0.663125 -0.7736462,0.221042 -1.6893906,0.221042 H 5.087777 Z"
       style="font-style:normal;font-variant:normal;font-weight:bold;font-stretch:normal;font-size:32.33525085px;font-family:'Roboto Mono';-inkscape-font-specification:'Roboto Mono Bold';fill:#000000;fill-opacity:1;stroke-width:0.25666103"
       id="path815" />
  </g>

 </g><g transform="translate(238.6, 49.5) rotate(45) "> <g
     aria-label="e"
     transform="scale(0.95916857,1.0425696)"
     style="font-style:normal;font-weight:normal;font-size:10.20241356px;line-height:1.25;font-family:sans-serif;letter-spacing:0px;word-spacing:0px;fill:#000000;fill-opacity:1;stroke:none;stroke-width:0.25506032"
     id="text826">
    <path
       d="m 9.5030338,24.112341 q 2.4633652,0 4.2363612,-0.957104 1.788686,-0.972794 2.620268,-2.180941 l -2.0868,-2.149561 q -0.768822,0.988484 -1.976969,1.506261 -1.208147,0.517778 -2.5418166,0.517778 -0.972794,0 -1.7886858,-0.313805 Q 7.1651901,20.221165 6.537581,19.656317 5.9413524,19.107159 5.5804772,18.416789 5.2352923,17.726419 5.0313193,16.659483 v -0.06276 H 16.689157 v -1.725925 q 0,-1.851447 -0.502087,-3.389089 Q 15.684983,9.9283764 14.712189,8.8300606 13.723705,7.7317448 12.295894,7.1198259 10.883774,6.5079071 9.0480172,6.5079071 q -1.7102346,0 -3.2008061,0.6432993 -1.4748813,0.627609 -2.5731971,1.7729956 -1.0983158,1.161077 -1.7259249,2.77717 -0.61191879,1.600403 -0.61191879,3.577372 v 0.627609 q 0,1.725924 0.61191879,3.232186 0.6119188,1.490572 1.7416151,2.588887 1.1296963,1.114007 2.6987189,1.757306 1.5847129,0.627609 3.5146107,0.627609 z M 9.0166368,9.8028546 q 0.8943428,0 1.5533322,0.2981144 0.67468,0.282424 1.145387,0.768821 0.455016,0.486397 0.70606,1.161077 0.266734,0.674679 0.266734,1.38074 v 0.313804 H 5.1254607 Q 5.2823629,12.815378 5.6118577,12.093628 5.9570427,11.371877 6.4591299,10.8541 6.9455269,10.336322 7.5888262,10.069588 8.2478157,9.8028546 9.0166368,9.8028546 Z"
       style="font-style:normal;font-variant:normal;font-weight:bold;font-stretch:normal;font-size:32.13358307px;font-family:'Roboto Mono';-inkscape-font-specification:'Roboto Mono Bold';fill:#000000;fill-opacity:1;stroke-width:0.25506032"
       id="path815" />
  </g>

 </g><g transform="translate(254.8, 66.5) rotate(55) "> <g
     aria-label="v"
     transform="scale(0.92414343,1.0820831)"
     style="font-style:normal;font-weight:normal;font-size:9.97779465px;line-height:1.25;font-family:sans-serif;letter-spacing:0px;word-spacing:0px;fill:#000000;fill-opacity:1;stroke:none;stroke-width:0.2494448"
     id="text826">
    <path
       d="m 7.346357,23.180218 h 3.621369 L 17.366501,6.5771608 H 13.238754 L 9.4025581,18.454024 9.1570415,19.589538 8.9268698,18.454024 5.0292945,6.5771608 H 0.90154743 Z"
       style="font-style:normal;font-variant:normal;font-weight:bold;font-stretch:normal;font-size:31.42611885px;font-family:'Roboto Mono';-inkscape-font-specification:'Roboto Mono Bold';fill:#000000;fill-opacity:1;stroke-width:0.2494448"
       id="path815" />
  </g>

 </g><g transform="translate(267.8, 85.5) rotate(65) "> <g
     aria-label="e"
     transform="scale(0.95916857,1.0425696)"
     style="font-style:normal;font-weight:normal;font-size:10.20241356px;line-height:1.25;font-family:sans-serif;letter-spacing:0px;word-spacing:0px;fill:#000000;fill-opacity:1;stroke:none;stroke-width:0.25506032"
     id="text826">
    <path
       d="m 9.5030338,24.112341 q 2.4633652,0 4.2363612,-0.957104 1.788686,-0.972794 2.620268,-2.180941 l -2.0868,-2.149561 q -0.768822,0.988484 -1.976969,1.506261 -1.208147,0.517778 -2.5418166,0.517778 -0.972794,0 -1.7886858,-0.313805 Q 7.1651901,20.221165 6.537581,19.656317 5.9413524,19.107159 5.5804772,18.416789 5.2352923,17.726419 5.0313193,16.659483 v -0.06276 H 16.689157 v -1.725925 q 0,-1.851447 -0.502087,-3.389089 Q 15.684983,9.9283764 14.712189,8.8300606 13.723705,7.7317448 12.295894,7.1198259 10.883774,6.5079071 9.0480172,6.5079071 q -1.7102346,0 -3.2008061,0.6432993 -1.4748813,0.627609 -2.5731971,1.7729956 -1.0983158,1.161077 -1.7259249,2.77717 -0.61191879,1.600403 -0.61191879,3.577372 v 0.627609 q 0,1.725924 0.61191879,3.232186 0.6119188,1.490572 1.7416151,2.588887 1.1296963,1.114007 2.6987189,1.757306 1.5847129,0.627609 3.5146107,0.627609 z M 9.0166368,9.8028546 q 0.8943428,0 1.5533322,0.2981144 0.67468,0.282424 1.145387,0.768821 0.455016,0.486397 0.70606,1.161077 0.266734,0.674679 0.266734,1.38074 v 0.313804 H 5.1254607 Q 5.2823629,12.815378 5.6118577,12.093628 5.9570427,11.371877 6.4591299,10.8541 6.9455269,10.336322 7.5888262,10.069588 8.2478157,9.8028546 9.0166368,9.8028546 Z"
       style="font-style:normal;font-variant:normal;font-weight:bold;font-stretch:normal;font-size:32.13358307px;font-family:'Roboto Mono';-inkscape-font-specification:'Roboto Mono Bold';fill:#000000;fill-opacity:1;stroke-width:0.25506032"
       id="path815" />
  </g>

 </g><g transform="translate(277.1, 107.3) rotate(75) "> <g
     aria-label="l"
     transform="scale(1.0241947,0.97637688)"
     style="font-style:normal;font-weight:normal;font-size:10.48266697px;line-height:1.25;font-family:sans-serif;letter-spacing:0px;word-spacing:0px;fill:#000000;fill-opacity:1;stroke:none;stroke-width:0.2620666"
     id="text826">
    <path
       d="M 1.6576327,0.92759991 V 4.3614201 H 7.0259995 V 22.272097 H 0.88092969 v 3.417699 H 15.858506 V 22.272097 H 10.974737 V 0.92759991 Z"
       style="font-style:normal;font-variant:normal;font-weight:bold;font-stretch:normal;font-size:33.01626205px;font-family:'Roboto Mono';-inkscape-font-specification:'Roboto Mono Bold';fill:#000000;fill-opacity:1;stroke-width:0.2620666"
       id="path815"
       inkscape:connector-curvature="0"
       sodipodi:nodetypes="ccccccccccc" />
  </g>

 </g><g transform="translate(282.6, 130) rotate(85) "> <g
     aria-label="o"
     transform="scale(0.95677922,1.0451732)"
     style="font-style:normal;font-weight:normal;font-size:10.15703297px;line-height:1.25;font-family:sans-serif;letter-spacing:0px;word-spacing:0px;fill:#000000;fill-opacity:1;stroke:none;stroke-width:0.25392577"
     id="text826">
    <path
       d="m 0.97603546,15.098557 v 0.328029 q 0,1.858831 0.53109474,3.436495 0.5310948,1.562044 1.5620434,2.717956 0.9997077,1.155912 2.4680285,1.81197 1.4839412,0.640438 3.3740137,0.640438 1.8744522,0 3.3427732,-0.640438 1.46832,-0.656058 2.483649,-1.81197 0.999707,-1.155912 1.530802,-2.717956 0.531095,-1.577664 0.531095,-3.436495 v -0.328029 q 0,-1.843211 -0.531095,-3.405255 Q 15.737345,10.115638 14.737638,8.9597263 13.706689,7.8038142 12.238368,7.147756 10.770047,6.4916978 8.8799749,6.4916978 q -1.874452,0 -3.3427728,0.6560582 Q 4.0688813,7.8038142 3.0691736,8.9597263 2.038225,10.115638 1.5071302,11.693302 0.97603546,13.255346 0.97603546,15.098557 Z m 4.03007194,0.328029 v -0.328029 q 0,-1.07781 0.218686,-2.030657 0.2343065,-0.968467 0.7029196,-1.702627 0.468613,-0.749781 1.2027734,-1.171532 0.7341603,-0.4217522 1.7494885,-0.4217522 1.0309487,0 1.7651091,0.4217522 0.73416,0.421751 1.202773,1.171532 0.452993,0.73416 0.671679,1.702627 0.234306,0.952847 0.234306,2.030657 v 0.328029 q 0,1.109051 -0.234306,2.077518 -0.218686,0.968466 -0.671679,1.687006 -0.468613,0.749781 -1.202773,1.171533 -0.7341604,0.421752 -1.7338682,0.421752 -1.0309486,0 -1.7807294,-0.421752 Q 6.396326,19.940891 5.927713,19.19111 5.4590999,18.47257 5.2247934,17.504104 5.0061074,16.535637 5.0061074,15.426586 Z"
       style="font-style:normal;font-variant:normal;font-weight:bold;font-stretch:normal;font-size:31.99064827px;font-family:'Roboto Mono';-inkscape-font-specification:'Roboto Mono Bold';fill:#000000;fill-opacity:1;stroke-width:0.25392577"
       id="path815" />
  </g>

 </g><g transform="translate(283.9, 153.5) rotate(95) "> <g
     aria-label="p"
     transform="scale(0.97942888,1.0210032)"
     style="font-style:normal;font-weight:normal;font-size:10.57470036px;line-height:1.25;font-family:sans-serif;letter-spacing:0px;word-spacing:0px;fill:#000000;fill-opacity:1;stroke:none;stroke-width:0.26436746"
     id="text826">
    <path
       d="M 0.87026698,31.332247 H 5.0660596 v -8.326534 q 0.3252553,0.341518 0.6667733,0.634248 0.341518,0.276467 0.7318243,0.504146 0.6505105,0.35778 1.4148603,0.552933 0.7643498,0.195154 1.6750645,0.195154 1.658802,0 2.94356,-0.683036 1.284758,-0.683036 2.162947,-1.886481 0.861927,-1.187181 1.317284,-2.82972 0.455357,-1.642539 0.455357,-3.545283 v -0.35778 q 0,-1.984057 -0.455357,-3.626596 Q 15.523016,10.304496 14.644827,9.1173143 13.766637,7.9463954 12.481879,7.2958849 11.197121,6.6453744 9.5220565,6.6453744 q -0.8456636,0 -1.5937507,0.1788904 Q 7.1964815,7.0031552 6.5947593,7.3284104 6.1068764,7.5886146 5.6840446,7.9463954 5.2612128,8.2879134 4.903432,8.7432707 L 4.7408044,6.9706296 H 0.87026698 Z M 12.221675,15.589894 v 0.341518 q 0,1.138393 -0.211416,2.146684 -0.211416,1.008292 -0.666773,1.772641 -0.455357,0.76435 -1.187182,1.219708 -0.7318241,0.439094 -1.7401153,0.439094 -0.6342478,0 -1.1709189,-0.130102 Q 6.7248614,21.233072 6.3345551,20.989131 5.927986,20.728927 5.6027308,20.371146 5.2937383,20.013365 5.0660596,19.57427 V 11.995823 Q 5.3100011,11.50794 5.6515191,11.15016 5.9930371,10.792379 6.4321317,10.532175 6.822438,10.320759 7.3103208,10.206919 7.7982037,10.09308 8.3836631,10.09308 q 1.0245541,0 1.7401159,0.422832 0.731824,0.422832 1.203444,1.170919 0.455357,0.748087 0.666773,1.756378 0.227679,1.008291 0.227679,2.146685 z"
       style="font-style:normal;font-variant:normal;font-weight:bold;font-stretch:normal;font-size:33.30613708px;font-family:'Roboto Mono';-inkscape-font-specification:'Roboto Mono Bold';fill:#000000;fill-opacity:1;stroke-width:0.26436746"
       id="path815" />
  </g>

 </g><g transform="translate(281.6, 176.7) rotate(105) "> <g
     aria-label="e"
     transform="scale(0.95916857,1.0425696)"
     style="font-style:normal;font-weight:normal;font-size:10.20241356px;line-height:1.25;font-family:sans-serif;letter-spacing:0px;word-spacing:0px;fill:#000000;fill-opacity:1;stroke:none;stroke-width:0.25506032"
     id="text826">
    <path
       d="m 9.5030338,24.112341 q 2.4633652,0 4.2363612,-0.957104 1.788686,-0.972794 2.620268,-2.180941 l -2.0868,-2.149561 q -0.768822,0.988484 -1.976969,1.506261 -1.208147,0.517778 -2.5418166,0.517778 -0.972794,0 -1.7886858,-0.313805 Q 7.1651901,20.221165 6.537581,19.656317 5.9413524,19.107159 5.5804772,18.416789 5.2352923,17.726419 5.0313193,16.659483 v -0.06276 H 16.689157 v -1.725925 q 0,-1.851447 -0.502087,-3.389089 Q 15.684983,9.9283764 14.712189,8.8300606 13.723705,7.7317448 12.295894,7.1198259 10.883774,6.5079071 9.0480172,6.5079071 q -1.7102346,0 -3.2008061,0.6432993 -1.4748813,0.627609 -2.5731971,1.7729956 -1.0983158,1.161077 -1.7259249,2.77717 -0.61191879,1.600403 -0.61191879,3.577372 v 0.627609 q 0,1.725924 0.61191879,3.232186 0.6119188,1.490572 1.7416151,2.588887 1.1296963,1.114007 2.6987189,1.757306 1.5847129,0.627609 3.5146107,0.627609 z M 9.0166368,9.8028546 q 0.8943428,0 1.5533322,0.2981144 0.67468,0.282424 1.145387,0.768821 0.455016,0.486397 0.70606,1.161077 0.266734,0.674679 0.266734,1.38074 v 0.313804 H 5.1254607 Q 5.2823629,12.815378 5.6118577,12.093628 5.9570427,11.371877 6.4591299,10.8541 6.9455269,10.336322 7.5888262,10.069588 8.2478157,9.8028546 9.0166368,9.8028546 Z"
       style="font-style:normal;font-variant:normal;font-weight:bold;font-stretch:normal;font-size:32.13358307px;font-family:'Roboto Mono';-inkscape-font-specification:'Roboto Mono Bold';fill:#000000;fill-opacity:1;stroke-width:0.25506032"
       id="path815" />
  </g>

 </g><g transform="translate(274.7, 199) rotate(115) "> <g
     aria-label="r"
     transform="scale(1.0162181,0.98404076)"
     style="font-style:normal;font-weight:normal;font-size:10.97190666px;line-height:1.25;font-family:sans-serif;letter-spacing:0px;word-spacing:0px;fill:#000000;fill-opacity:1;stroke:none;stroke-width:0.2742976"
     id="text826">
    <path
       d="m 11.951208,6.8949876 q -1.872972,0 -3.4253453,0.894302 Q 6.9734894,8.6667179 5.8598303,10.202218 L 5.8260831,9.780377 5.6404733,7.23246 H 1.5739303 V 25.489719 H 5.9441985 V 14.370002 q 0.3037252,-0.79306 0.7930602,-1.383637 0.4893351,-0.60745 1.1642799,-0.995543 0.5905768,-0.37122 1.3667635,-0.55683 0.7761869,-0.18561 1.7379829,-0.18561 0.877429,0 1.805478,0.118116 0.944923,0.101241 1.872972,0.320598 L 15.325932,7.3505754 Q 14.785977,7.1649656 13.874801,7.0299766 12.963625,6.8949876 11.951208,6.8949876 Z"
       style="font-style:normal;font-variant:normal;font-weight:bold;font-stretch:normal;font-size:34.5571785px;font-family:'Roboto Mono';-inkscape-font-specification:'Roboto Mono Bold';fill:#000000;fill-opacity:1;stroke-width:0.2742976"
       id="path815" />
  </g>

 </g>   </svg>
